<?xml version="1.0" encoding="UTF-8"?>
<svg id="Capa_2" data-name="Capa 2" xmlns="http://www.w3.org/2000/svg" xmlns:xlink="http://www.w3.org/1999/xlink" viewBox="0 0 250 250">
  <defs>
    <style>
      .cls-1 {
        fill: none;
      }

      .cls-1, .cls-2 {
        stroke-width: 0px;
      }

      .cls-2 {
        fill: #fff;
      }

      .cls-3 {
        clip-path: url(#clippath);
      }
    </style>
    <clipPath id="clippath">
      <rect class="cls-1" x="2.5659" y="2.5659" width="244.8682" height="244.8682"/>
    </clipPath>
  </defs>
  <g class="cls-3">
    <path class="cls-2" d="m2.7033,111.3897c27.7871,1.3737,53.1028,8.3407,75.7933,25.0314,4.1539-27.9821,17.2549-50.9438,36.1788-71.6641,18.9332,20.6762,31.8397,43.638,36.17,71.6553,22.5318-16.5761,47.9227-23.6489,76.1721-25.0534-1.097,26.9561-7.0351,52.0448-23.2189,73.5491-22.7874,30.2809-55.6008,39.4233-91.7443,41.7221-4.1187-35.3193-21.5802-62.4952-48.9046-83.6646-16.2328-12.5774-34.1879-21.7771-55.1427-25.8067,1.5109,18.1438,5.59,35.0108,12.5852,51.1505,12.6293,29.1364,33.0335,51.054,62.2522,63.6143,29.3332,12.6082,59.2258,11.3134,88.1981-1.4227,31.1262-13.6827,52.2573-37.195,63.2872-69.3961,18.202-53.1281-6.9773-113.7386-57.142-138.757-17.9993-8.9795-36.9232-13.5066-56.9137-12.5642-30.3504,1.4357-56.3887,13.0178-77.8151,34.7333-12.9377,13.1145-22.0297,28.5108-27.6858,45.9939-1.2481,3.8547-4.2509,5.3083-9.0083,4.3601,2.3831-6.6193,4.2156-13.3571,7.1494-19.5753C31.6269,35.6035,62.5327,11.1092,105.9184,4.1599c58.0803-9.3054,111.3288,23.0586,132.0809,74.1565,19.6952,48.4868,8.0567,101.4479-30.276,136.8152-44.755,41.2951-112.1922,43.519-158.2647,3.6814-20.8227-18.0027-33.6502-41.1716-40.6719-67.5067-2.7928-10.4769-4.1804-21.3368-6.0305-32.0513-.4053-2.3385-.0573-4.8048-.0573-7.8652h.0044Zm115.2846,109.3831c25.862-5.9013,48.2488-18.1526,66.5738-37.53,17.4395-18.4342,29.1922-40.0266,35.7248-65.3578-45.3765,3.9767-78.3568,24.4858-97.1534,66.1374.0749-2.8361.238-5.4561,1.1323-7.799,2.5594-6.681,5.6031-13.1808,8.0875-19.8838,1.3125-3.5447,2.599-7.3676,2.6255-11.0754.1278-19.5708-3.4051-38.5207-11.2155-56.5151-2.4051-5.5443-5.6472-10.7277-8.6336-16.3205-1.0794.907-1.4496,1.123-1.6916,1.4354-2.0794,2.7391-4.2068,5.4478-6.1893,8.2574-11.8056,16.7216-20.8006,34.6493-23.1219,55.3079-.1983,1.7484.308,4.2015,1.4624,5.3729,13.9815,14.2376,22.3555,31.4788,27.0907,50.5697,2.194,8.8515,3.5065,17.9283,5.3082,27.3919v.0088Z"/>
  </g>
</svg>