<?xml version="1.0" encoding="UTF-8"?>
<svg id="Capa_1" data-name="Capa 1" xmlns="http://www.w3.org/2000/svg" viewBox="0 0 1225.3053 203.5737">
  <defs>
    <style>
      .cls-1 {
        font-family: MonotypeCorsiva, 'Monotype Corsiva';
        font-size: 185.2121px;
      }

      .cls-1, .cls-2 {
        fill: #006f75;
      }

      .cls-2 {
        stroke-width: 0px;
      }
    </style>
  </defs>
  <text class="cls-1" transform="translate(204.3042 146.7799)"><tspan x="0" y="0">Lotus Splendor</tspan></text>
  <path class="cls-2" d="m.1029,92.5465c19.9489.9862,38.1236,5.988,54.4135,17.9705,2.9822-20.0889,12.3876-36.5736,25.9735-51.4491,13.5925,14.8439,22.8584,31.3286,25.9672,51.4428,16.176-11.9003,34.4047-16.978,54.6855-17.9863-.7876,19.3523-5.0506,37.364-16.6693,52.8024-16.3595,21.7393-39.9169,28.3028-65.8651,29.9531-2.9569-25.3564-15.4929-44.8666-35.1096-60.0645-11.6538-9.0296-24.5442-15.6342-39.588-18.5271,1.0847,13.0258,4.0132,25.135,9.0352,36.722,9.0668,20.9176,23.7154,36.6527,44.6921,45.67,21.0589,9.0517,42.5194,8.1221,63.3192-1.0214,22.3461-9.8231,37.5165-26.703,45.4351-49.8208,13.0676-38.1417-5.0091-81.6552-41.0234-99.6164-12.9221-6.4466-26.5079-9.6967-40.8595-9.0201-21.7892,1.0307-40.4826,9.3457-55.865,24.9357-9.2882,9.4152-15.8156,20.4685-19.8762,33.0199-.896,2.7674-3.0518,3.8109-6.4672,3.1302,1.7109-4.7521,3.0265-9.5893,5.1327-14.0535C20.8678,38.1381,43.0557,20.5531,74.2031,15.5641c41.697-6.6805,79.9251,16.5542,94.8235,53.2384,14.1396,34.8096,5.7841,72.8315-21.7357,98.2223-32.1305,29.6466-80.545,31.2432-113.6214,2.6429-14.949-12.9245-24.1581-29.5579-29.1992-48.4644-2.005-7.5216-3.0012-15.3181-4.3294-23.0103-.291-1.6789-.0411-3.4495-.0411-5.6466h.0032,0Zm82.7651,78.5283c18.5668-4.2367,34.6388-13.0321,47.7947-26.9435,12.5202-13.2343,20.9577-28.7359,25.6475-46.9217-32.5767,2.855-56.2539,17.5788-69.7484,47.4814.0538-2.0361.1709-3.917.8129-5.5991,1.8374-4.7964,4.0226-9.4628,5.8062-14.275.9423-2.5448,1.8659-5.2893,1.8849-7.9512.0918-14.0503-2.4446-27.6548-8.0518-40.5733-1.7267-3.9804-4.0542-7.7016-6.1982-11.7168-.7749.6512-1.0407.8062-1.2144,1.0305-1.4928,1.9665-3.0201,3.9111-4.4434,5.9282-8.4755,12.0048-14.9332,24.8754-16.5997,39.7066-.1424,1.2552.2211,3.0163,1.0499,3.8573,10.0376,10.2215,16.0495,22.5993,19.449,36.305,1.5751,6.3547,2.5174,12.8711,3.8109,19.6652v.0063h0Z"/>
</svg>